<mxfile host="app.diagrams.net" modified="2024-07-19T06:36:28.782Z" agent="Mozilla/5.0 (Windows NT 10.0; Win64; x64) AppleWebKit/537.36 (KHTML, like Gecko) Chrome/126.0.0.0 Safari/537.36" etag="JKDlw3FvKfWkgIsSH2dl" version="24.7.1" type="device">
  <diagram name="Page-1" id="pDSfL4EJ3spfUEwkM9W3">
    <mxGraphModel dx="1434" dy="772" grid="1" gridSize="10" guides="1" tooltips="1" connect="1" arrows="1" fold="1" page="1" pageScale="1" pageWidth="850" pageHeight="1100" math="0" shadow="0">
      <root>
        <mxCell id="0" />
        <mxCell id="1" parent="0" />
        <mxCell id="2o1phsypINGcMcXLi1JU-1" value="" style="rounded=0;whiteSpace=wrap;html=1;" vertex="1" parent="1">
          <mxGeometry x="180" y="10" width="490" height="90" as="geometry" />
        </mxCell>
        <mxCell id="2o1phsypINGcMcXLi1JU-2" value="" style="whiteSpace=wrap;html=1;aspect=fixed;" vertex="1" parent="1">
          <mxGeometry x="200" y="15" width="80" height="80" as="geometry" />
        </mxCell>
        <mxCell id="2o1phsypINGcMcXLi1JU-3" value="" style="endArrow=none;html=1;rounded=0;exitX=0;exitY=1;exitDx=0;exitDy=0;entryX=1;entryY=0;entryDx=0;entryDy=0;" edge="1" parent="1" source="2o1phsypINGcMcXLi1JU-2" target="2o1phsypINGcMcXLi1JU-2">
          <mxGeometry width="50" height="50" relative="1" as="geometry">
            <mxPoint x="215" y="80" as="sourcePoint" />
            <mxPoint x="265" y="30" as="targetPoint" />
          </mxGeometry>
        </mxCell>
        <mxCell id="2o1phsypINGcMcXLi1JU-5" value="" style="endArrow=none;html=1;rounded=0;entryX=0;entryY=0;entryDx=0;entryDy=0;exitX=1;exitY=1;exitDx=0;exitDy=0;" edge="1" parent="1" source="2o1phsypINGcMcXLi1JU-2" target="2o1phsypINGcMcXLi1JU-2">
          <mxGeometry width="50" height="50" relative="1" as="geometry">
            <mxPoint x="265" y="90" as="sourcePoint" />
            <mxPoint x="215" y="20" as="targetPoint" />
          </mxGeometry>
        </mxCell>
        <mxCell id="2o1phsypINGcMcXLi1JU-6" value="HOME" style="rounded=1;whiteSpace=wrap;html=1;" vertex="1" parent="1">
          <mxGeometry x="300" y="40" width="100" height="30" as="geometry" />
        </mxCell>
        <mxCell id="2o1phsypINGcMcXLi1JU-7" value="ABOUT US" style="rounded=1;whiteSpace=wrap;html=1;" vertex="1" parent="1">
          <mxGeometry x="410" y="40" width="100" height="30" as="geometry" />
        </mxCell>
        <mxCell id="2o1phsypINGcMcXLi1JU-8" value="CONTACT US" style="rounded=1;whiteSpace=wrap;html=1;" vertex="1" parent="1">
          <mxGeometry x="520" y="40" width="100" height="30" as="geometry" />
        </mxCell>
        <mxCell id="2o1phsypINGcMcXLi1JU-9" value="" style="whiteSpace=wrap;html=1;aspect=fixed;" vertex="1" parent="1">
          <mxGeometry x="180" y="100" width="490" height="490" as="geometry" />
        </mxCell>
        <mxCell id="2o1phsypINGcMcXLi1JU-10" value="LK DENTAL HAVEN" style="rounded=0;whiteSpace=wrap;html=1;" vertex="1" parent="1">
          <mxGeometry x="240" y="120" width="380" height="60" as="geometry" />
        </mxCell>
        <mxCell id="2o1phsypINGcMcXLi1JU-12" value="FOOTER CONTENT AND SOCIAL MEDIA LINKS" style="rounded=0;whiteSpace=wrap;html=1;" vertex="1" parent="1">
          <mxGeometry x="180" y="590" width="490" height="50" as="geometry" />
        </mxCell>
        <mxCell id="2o1phsypINGcMcXLi1JU-13" value="MEDIUM IMAGE" style="rounded=0;whiteSpace=wrap;html=1;" vertex="1" parent="1">
          <mxGeometry x="240" y="210" width="380" height="180" as="geometry" />
        </mxCell>
        <mxCell id="2o1phsypINGcMcXLi1JU-14" value="" style="endArrow=none;html=1;rounded=0;exitX=0;exitY=1;exitDx=0;exitDy=0;entryX=1;entryY=0;entryDx=0;entryDy=0;" edge="1" parent="1" source="2o1phsypINGcMcXLi1JU-13" target="2o1phsypINGcMcXLi1JU-13">
          <mxGeometry width="50" height="50" relative="1" as="geometry">
            <mxPoint x="400" y="330" as="sourcePoint" />
            <mxPoint x="450" y="280" as="targetPoint" />
          </mxGeometry>
        </mxCell>
        <mxCell id="2o1phsypINGcMcXLi1JU-15" value="" style="endArrow=none;html=1;rounded=0;exitX=1;exitY=1;exitDx=0;exitDy=0;entryX=0;entryY=0;entryDx=0;entryDy=0;" edge="1" parent="1" source="2o1phsypINGcMcXLi1JU-13" target="2o1phsypINGcMcXLi1JU-13">
          <mxGeometry width="50" height="50" relative="1" as="geometry">
            <mxPoint x="250" y="400" as="sourcePoint" />
            <mxPoint x="630" y="220" as="targetPoint" />
          </mxGeometry>
        </mxCell>
        <mxCell id="2o1phsypINGcMcXLi1JU-16" value="" style="rounded=0;whiteSpace=wrap;html=1;" vertex="1" parent="1">
          <mxGeometry x="240" y="430" width="390" height="120" as="geometry" />
        </mxCell>
        <mxCell id="2o1phsypINGcMcXLi1JU-17" value="MAPS" style="whiteSpace=wrap;html=1;aspect=fixed;" vertex="1" parent="1">
          <mxGeometry x="260" y="440" width="100" height="100" as="geometry" />
        </mxCell>
        <mxCell id="2o1phsypINGcMcXLi1JU-18" value="HEADING&lt;div&gt;CONTACT US HERE&lt;/div&gt;" style="rounded=0;whiteSpace=wrap;html=1;align=center;" vertex="1" parent="1">
          <mxGeometry x="370" y="440" width="230" height="100" as="geometry" />
        </mxCell>
        <mxCell id="2o1phsypINGcMcXLi1JU-20" value="" style="rounded=0;whiteSpace=wrap;html=1;" vertex="1" parent="1">
          <mxGeometry x="180" y="660" width="490" height="90" as="geometry" />
        </mxCell>
        <mxCell id="2o1phsypINGcMcXLi1JU-21" value="" style="whiteSpace=wrap;html=1;aspect=fixed;" vertex="1" parent="1">
          <mxGeometry x="190" y="665" width="80" height="80" as="geometry" />
        </mxCell>
        <mxCell id="2o1phsypINGcMcXLi1JU-22" value="" style="endArrow=none;html=1;rounded=0;exitX=0;exitY=1;exitDx=0;exitDy=0;entryX=1;entryY=0;entryDx=0;entryDy=0;" edge="1" parent="1">
          <mxGeometry width="50" height="50" relative="1" as="geometry">
            <mxPoint x="190" y="745" as="sourcePoint" />
            <mxPoint x="270" y="665" as="targetPoint" />
          </mxGeometry>
        </mxCell>
        <mxCell id="2o1phsypINGcMcXLi1JU-23" value="" style="endArrow=none;html=1;rounded=0;entryX=0;entryY=0;entryDx=0;entryDy=0;exitX=1;exitY=1;exitDx=0;exitDy=0;" edge="1" parent="1">
          <mxGeometry width="50" height="50" relative="1" as="geometry">
            <mxPoint x="270" y="745" as="sourcePoint" />
            <mxPoint x="190" y="665" as="targetPoint" />
          </mxGeometry>
        </mxCell>
        <mxCell id="2o1phsypINGcMcXLi1JU-24" value="HOME" style="rounded=1;whiteSpace=wrap;html=1;" vertex="1" parent="1">
          <mxGeometry x="300" y="690" width="100" height="30" as="geometry" />
        </mxCell>
        <mxCell id="2o1phsypINGcMcXLi1JU-25" value="ABOUT US" style="rounded=1;whiteSpace=wrap;html=1;" vertex="1" parent="1">
          <mxGeometry x="410" y="690" width="100" height="30" as="geometry" />
        </mxCell>
        <mxCell id="2o1phsypINGcMcXLi1JU-26" value="CONTACT US" style="rounded=1;whiteSpace=wrap;html=1;" vertex="1" parent="1">
          <mxGeometry x="520" y="690" width="100" height="30" as="geometry" />
        </mxCell>
        <mxCell id="2o1phsypINGcMcXLi1JU-28" value="" style="whiteSpace=wrap;html=1;aspect=fixed;" vertex="1" parent="1">
          <mxGeometry x="180" y="750" width="490" height="490" as="geometry" />
        </mxCell>
        <mxCell id="2o1phsypINGcMcXLi1JU-29" value="FOOTER CONTENT AND SOCIAL MEDIA LINKS" style="rounded=0;whiteSpace=wrap;html=1;" vertex="1" parent="1">
          <mxGeometry x="180" y="1240" width="490" height="50" as="geometry" />
        </mxCell>
        <mxCell id="2o1phsypINGcMcXLi1JU-30" value="LK DENTAL HAVEN" style="rounded=0;whiteSpace=wrap;html=1;" vertex="1" parent="1">
          <mxGeometry x="310" y="780" width="230" height="60" as="geometry" />
        </mxCell>
        <mxCell id="2o1phsypINGcMcXLi1JU-32" value="SMALL IMAGE" style="rounded=0;whiteSpace=wrap;html=1;" vertex="1" parent="1">
          <mxGeometry x="310" y="840" width="230" height="190" as="geometry" />
        </mxCell>
        <mxCell id="2o1phsypINGcMcXLi1JU-34" value="MAPS/LOCATIOn" style="rounded=0;whiteSpace=wrap;html=1;" vertex="1" parent="1">
          <mxGeometry x="310" y="1040" width="230" height="60" as="geometry" />
        </mxCell>
        <mxCell id="2o1phsypINGcMcXLi1JU-35" value="HEADING/CONTACT US HERE" style="rounded=0;whiteSpace=wrap;html=1;" vertex="1" parent="1">
          <mxGeometry x="310" y="1110" width="230" height="60" as="geometry" />
        </mxCell>
      </root>
    </mxGraphModel>
  </diagram>
</mxfile>
